<svg width="40" height="40" viewBox="0 0 40 40" fill="none" xmlns="http://www.w3.org/2000/svg">
  <!-- Background Circle -->
  <circle cx="20" cy="20" r="18" fill="#2563eb" stroke="#1e40af" stroke-width="2"/>
  
  <!-- Scale/Balance Icon -->
  <g transform="translate(10, 10)">
    <!-- Left Pan -->
    <rect x="1" y="10" width="6" height="1" fill="white"/>
    <line x1="2" y1="11" x2="1" y2="14" stroke="white" stroke-width="0.5"/>
    <line x1="6" y1="11" x2="7" y2="14" stroke="white" stroke-width="0.5"/>
    <path d="M 1 14 L 7 14 L 4 16 Z" fill="white"/>
    
    <!-- Right Pan -->
    <rect x="13" y="10" width="6" height="1" fill="white"/>
    <line x1="14" y1="11" x2="13" y2="14" stroke="white" stroke-width="0.5"/>
    <line x1="18" y1="11" x2="19" y2="14" stroke="white" stroke-width="0.5"/>
    <path d="M 13 14 L 19 14 L 16 16 Z" fill="white"/>
    
    <!-- Center Post -->
    <rect x="9.5" y="2" width="1" height="9" fill="white"/>
    <line x1="2" y1="10" x2="10" y2="10" stroke="white" stroke-width="0.8"/>
    <line x1="10" y1="10" x2="18" y2="10" stroke="white" stroke-width="0.8"/>
    
    <!-- Base -->
    <rect x="7" y="16" width="6" height="1.5" rx="0.5" fill="white"/>
  </g>
  
  <!-- Age "18" Text -->
  <text x="20" y="27" font-family="Arial, sans-serif" font-size="8" font-weight="bold" fill="white" text-anchor="middle">18</text>
</svg>
